# xmcd CD database file
#
# Track frame offsets:
#	150
#	15367
#	29576
#	45082
#	59039
#	72578
#	84118
#	98207
#	112059
#	120039
#	133104
#	147287
#	159286
#	173507
#	187242
#	201345
#	216380
#	229524
#
# Disc length: 3252 seconds
#
# Revision: 0
# Processed by: cddbd v1.5.1PL0 Copyright (c) Steve Scherf et al.
# Submitted via: CDex 1.51
#
DISCID=f60cb212
DTITLE=Various Artist - Jazz after hours - Smoothies Vol. A
DYEAR=1900
DGENRE=Jazz
TTITLE0=Embracable you
TTITLE1=For Sentimental reasons
TTITLE2=The last time I saw you
TTITLE3=Everything I Love
TTITLE4=I can't begin to tell you
TTITLE5=They say it's wonderful
TTITLE6=Fools rush in
TTITLE7=Can't help lovin' dat men
TTITLE8=Love me or leave me
TTITLE9=I'm a shy guy
TTITLE10=Tell  me more
TTITLE11=I'm glad I waited for you
TTITLE12=I realize now
TTITLE13=Far away places
TTITLE14=The boy next door
TTITLE15=Night and Day
TTITLE16=All to soon
TTITLE17=Please consider me
EXTD=
EXTT0=
EXTT1=
EXTT2=
EXTT3=
EXTT4=
EXTT5=
EXTT6=
EXTT7=
EXTT8=
EXTT9=
EXTT10=
EXTT11=
EXTT12=
EXTT13=
EXTT14=
EXTT15=
EXTT16=
EXTT17=
PLAYORDER=
